<svg width="360" height="361" viewBox="0 0 360 361" fill="none" xmlns="http://www.w3.org/2000/svg">
<path d="M196 10C196 4.48718 200.487 0 206 0C211.513 0 216 4.48718 216 10C216 15.5128 211.513 20 206 20C200.487 20 196 15.5128 196 10Z" fill="#FFB511"/>
<path d="M208.472 104.28C244.437 104.28 270 85.8276 270 85.8276L246.611 214.466C246.611 214.466 229.51 228 194.309 228C134.074 228 90 183.849 90 129.138C90 74.3683 138.834 30 199.07 30C200.656 30 202.184 30.0588 203.712 30.1175L201.596 39.4025C177.326 39.4025 162.047 47.4535 153.82 58.3252C138.834 78.0705 163.34 104.28 208.472 104.28Z" fill="#FFB511"/>
<path fill-rule="evenodd" clip-rule="evenodd" d="M336 305.8C344.174 305.8 350.8 299.174 350.8 291C350.8 282.826 344.174 276.2 336 276.2C327.826 276.2 321.2 282.826 321.2 291C321.2 299.174 327.826 305.8 336 305.8ZM336 315C349.255 315 360 304.255 360 291C360 277.745 349.255 267 336 267C322.745 267 312 277.745 312 291C312 304.255 322.745 315 336 315Z" fill="#121C33"/>
<path d="M258.461 314H249.289V268H251.759L279.923 294.84V268H289.095V314H286.567L258.461 287.079V314Z" fill="#121C33"/>
<path d="M207.606 268H216.778V314H207.606V268Z" fill="#121C33"/>
<path d="M141.989 314H132.817L136.345 268H138.697L155.16 285.962L171.682 268H174.093L177.562 314H168.389L166.39 287.314L155.219 299.426L144.047 287.314L141.989 314Z" fill="#121C33"/>
<path fill-rule="evenodd" clip-rule="evenodd" d="M101.565 314H112.031L86.8835 268H84.1466L59.0546 314H69.5206L73.6952 306.247H97.3318L101.565 314ZM85.5723 284.609L78.7518 297.074H92.3928L85.5723 284.609Z" fill="#121C33"/>
<path d="M23.9331 267C31.7266 267 38.6611 270.754 43.0181 276.538L44 277.831L36.717 283.426C34.1341 279.099 29.4051 276.2 23.9992 276.2C15.8254 276.2 9.19922 282.826 9.19922 291C9.19922 299.174 15.8254 305.8 23.9992 305.8C29.4053 305.8 34.1343 302.902 36.7171 298.574L44 304.169L43.0181 305.462C38.6611 311.308 31.7266 315 23.9331 315C10.7392 315 0 304.231 0 291C0 277.769 10.7392 267 23.9331 267Z" fill="#121C33"/>
<path fill-rule="evenodd" clip-rule="evenodd" d="M43.9177 359.717C45.1386 360.428 46.5372 360.783 48.1135 360.783C49.2417 360.783 50.2849 360.583 51.2431 360.181C52.2012 359.779 53.0358 359.215 53.7467 358.488C54.473 357.762 55.0294 356.928 55.4157 355.985L52.4717 354.919C52.209 355.506 51.8612 356.024 51.4285 356.472C51.0112 356.92 50.5244 357.275 49.9681 357.538C49.4272 357.785 48.8244 357.909 48.1599 357.909C47.2017 357.909 46.3517 357.677 45.6099 357.213C44.8681 356.734 44.2886 356.085 43.8713 355.266C43.4541 354.432 43.2454 353.474 43.2454 352.392C43.2454 351.31 43.4463 350.359 43.8481 349.54C44.2654 348.721 44.8372 348.08 45.5636 347.616C46.3054 347.137 47.1476 346.898 48.0904 346.898C48.7394 346.898 49.3422 347.021 49.8985 347.269C50.4549 347.5 50.9494 347.833 51.3821 348.265C51.8149 348.683 52.1626 349.177 52.4253 349.749L55.3694 348.659C54.983 347.748 54.4267 346.944 53.7003 346.249C52.9894 345.538 52.1549 344.989 51.1967 344.603C50.2385 344.201 49.2031 344 48.0904 344C46.514 344 45.1154 344.363 43.8945 345.09C42.6891 345.8 41.7386 346.79 41.0432 348.057C40.3477 349.309 40 350.754 40 352.392C40 354.03 40.3477 355.483 41.0432 356.75C41.7386 358.002 42.6968 358.991 43.9177 359.717ZM198.996 360.783C197.42 360.783 196.021 360.428 194.801 359.717C193.58 358.991 192.621 358.002 191.926 356.75C191.231 355.483 190.883 354.03 190.883 352.392C190.883 350.754 191.231 349.309 191.926 348.057C192.621 346.79 193.572 345.8 194.777 345.09C195.998 344.363 197.397 344 198.973 344C200.086 344 201.121 344.201 202.08 344.603C203.038 344.989 203.872 345.538 204.583 346.249C205.309 346.944 205.866 347.748 206.252 348.659L203.308 349.749C203.045 349.177 202.698 348.683 202.265 348.265C201.832 347.833 201.338 347.5 200.781 347.269C200.225 347.021 199.622 346.898 198.973 346.898C198.03 346.898 197.188 347.137 196.446 347.616C195.72 348.08 195.148 348.721 194.731 349.54C194.329 350.359 194.128 351.31 194.128 352.392C194.128 353.474 194.337 354.432 194.754 355.266C195.171 356.085 195.751 356.734 196.493 357.213C197.235 357.677 198.085 357.909 199.043 357.909C199.707 357.909 200.31 357.785 200.851 357.538C201.407 357.275 201.894 356.92 202.311 356.472C202.744 356.024 203.092 355.506 203.355 354.919L206.299 355.985C205.912 356.928 205.356 357.762 204.629 358.488C203.919 359.215 203.084 359.779 202.126 360.181C201.168 360.583 200.125 360.783 198.996 360.783ZM311.792 360.482C312.503 360.683 313.268 360.783 314.087 360.783C315.339 360.783 316.405 360.583 317.286 360.181C318.167 359.779 318.839 359.223 319.303 358.512C319.766 357.785 319.998 356.943 319.998 355.985C319.998 354.903 319.612 353.922 318.839 353.041C318.066 352.16 316.985 351.549 315.594 351.209L313.461 350.676C312.858 350.522 312.379 350.298 312.024 350.004C311.684 349.71 311.514 349.309 311.514 348.799C311.514 348.149 311.73 347.647 312.163 347.292C312.611 346.936 313.221 346.759 313.994 346.759C314.751 346.759 315.377 346.944 315.872 347.315C316.366 347.686 316.706 348.134 316.892 348.659L319.975 347.709C319.697 346.952 319.295 346.295 318.77 345.739C318.244 345.182 317.587 344.757 316.799 344.464C316.026 344.155 315.122 344 314.087 344C312.232 344 310.795 344.433 309.775 345.298C308.771 346.148 308.268 347.338 308.268 348.868C308.268 349.672 308.438 350.375 308.778 350.978C309.118 351.58 309.59 352.09 310.192 352.508C310.795 352.909 311.491 353.211 312.279 353.412L314.388 353.968C315.099 354.154 315.655 354.424 316.057 354.779C316.475 355.119 316.683 355.544 316.683 356.054C316.683 356.642 316.42 357.121 315.895 357.492C315.385 357.863 314.72 358.04 313.901 358.025C313.129 358.009 312.487 357.816 311.977 357.445C311.467 357.059 311.112 356.603 310.911 356.078L307.805 357.005C307.913 357.499 308.145 357.971 308.5 358.419C308.871 358.867 309.335 359.277 309.891 359.648C310.447 360.003 311.081 360.281 311.792 360.482ZM285.695 344.278V360.505H288.871V349.401L296.938 360.505H300.091V344.278H296.938V355.174L289.01 344.278H285.695ZM269.845 360.783C268.207 360.783 266.754 360.428 265.487 359.717C264.235 358.991 263.254 358.002 262.543 356.75C261.832 355.483 261.477 354.038 261.477 352.415C261.477 350.761 261.832 349.309 262.543 348.057C263.254 346.79 264.227 345.8 265.464 345.09C266.716 344.379 268.153 344.023 269.776 344.023C271.414 344.023 272.851 344.386 274.087 345.113C275.339 345.824 276.321 346.813 277.031 348.08C277.742 349.332 278.098 350.777 278.098 352.415C278.098 354.038 277.742 355.483 277.031 356.75C276.336 358.002 275.362 358.991 274.111 359.717C272.874 360.428 271.452 360.783 269.845 360.783ZM269.845 357.886C270.834 357.886 271.7 357.654 272.441 357.19C273.199 356.711 273.786 356.062 274.203 355.243C274.636 354.424 274.852 353.481 274.852 352.415C274.852 351.333 274.636 350.383 274.203 349.564C273.771 348.745 273.176 348.103 272.418 347.64C271.661 347.16 270.78 346.921 269.776 346.921C268.802 346.921 267.929 347.16 267.156 347.64C266.399 348.103 265.804 348.745 265.371 349.564C264.938 350.383 264.722 351.333 264.722 352.415C264.722 353.481 264.938 354.424 265.371 355.243C265.804 356.062 266.407 356.711 267.179 357.19C267.952 357.654 268.841 357.886 269.845 357.886ZM250.711 344.278V360.505H253.887V344.278H250.711ZM235.583 360.505V347.176H230.715V344.278H243.604V347.176H238.759V360.505H235.583ZM227.681 360.505L221.283 344.278H217.898L211.5 360.505H214.861L216.228 356.935H222.953L224.319 360.505H227.681ZM217.302 354.13H221.879L219.59 348.153L217.302 354.13ZM180.113 344.278V360.505H183.289V344.278H180.113ZM157.164 360.505V344.278H160.479L168.407 355.174V344.278H171.56V360.505H168.407L160.34 349.401V360.505H157.164ZM138.673 360.042C139.662 360.567 140.829 360.83 142.173 360.83C143.533 360.83 144.708 360.567 145.697 360.042C146.702 359.516 147.474 358.782 148.015 357.84C148.572 356.881 148.85 355.753 148.85 354.455V344.278H145.674V354.455C145.674 355.15 145.527 355.761 145.233 356.286C144.955 356.796 144.553 357.19 144.028 357.469C143.518 357.747 142.915 357.886 142.22 357.886C141.524 357.886 140.914 357.747 140.388 357.469C139.878 357.19 139.477 356.796 139.183 356.286C138.905 355.761 138.766 355.15 138.766 354.455V344.278H135.59V354.455C135.59 355.753 135.853 356.881 136.378 357.84C136.919 358.782 137.684 359.516 138.673 360.042ZM110.926 360.505V344.278H114.38L119.109 351.279L123.838 344.278H127.269V360.505H124.116V349.239L119.109 356.611L114.102 349.262V360.505H110.926ZM86.0312 344.278V360.505H89.2071V349.262L94.2143 356.611L99.2216 349.239V360.505H102.374V344.278H98.9434L94.2143 351.279L89.4853 344.278H86.0312ZM70.1849 360.783C68.5468 360.783 67.0941 360.428 65.8268 359.717C64.575 358.991 63.5937 358.002 62.8828 356.75C62.1719 355.483 61.8164 354.038 61.8164 352.415C61.8164 350.761 62.1719 349.309 62.8828 348.057C63.5937 346.79 64.5673 345.8 65.8036 345.09C67.0554 344.379 68.4927 344.023 70.1154 344.023C71.7536 344.023 73.1908 344.386 74.4272 345.113C75.679 345.824 76.6603 346.813 77.3712 348.08C78.0821 349.332 78.4376 350.777 78.4376 352.415C78.4376 354.038 78.0821 355.483 77.3712 356.75C76.6758 358.002 75.7022 358.991 74.4504 359.717C73.214 360.428 71.7922 360.783 70.1849 360.783ZM70.1849 357.886C71.174 357.886 72.0395 357.654 72.7813 357.19C73.5386 356.711 74.1258 356.062 74.5431 355.243C74.9758 354.424 75.1922 353.481 75.1922 352.415C75.1922 351.333 74.9758 350.383 74.5431 349.564C74.1104 348.745 73.5154 348.103 72.7581 347.64C72.0008 347.16 71.1199 346.921 70.1154 346.921C69.1418 346.921 68.2686 347.16 67.4959 347.64C66.7386 348.103 66.1436 348.745 65.7109 349.564C65.2782 350.383 65.0618 351.333 65.0618 352.415C65.0618 353.481 65.2782 354.424 65.7109 355.243C66.1436 356.062 66.7464 356.711 67.5191 357.19C68.2918 357.654 69.1804 357.886 70.1849 357.886Z" fill="#747F99"/>
</svg>
