<svg width="162" height="40" viewBox="0 0 162 40" fill="none" xmlns="http://www.w3.org/2000/svg">
<path d="M14.1088 1.94726C14.1088 0.873771 14.982 0 16.0549 0C17.1277 0 18.0009 0.873771 18.0009 1.94726C18.0009 3.02075 17.1277 3.89452 16.0549 3.89452C14.982 3.89452 14.1088 3.02075 14.1088 1.94726Z" fill="#FFB511"/>
<path d="M16.2789 16.0902C21.2208 16.0964 24.7333 13.5531 24.7333 13.5531L21.5195 31.2401C21.5195 31.2401 19.1697 33.1389 14.3329 33.1389C6.05615 33.1389 0 27.0304 0 19.508C0 11.9775 6.71022 5.87719 14.987 5.87719C15.205 5.87719 15.4149 5.88527 15.6248 5.89335L15.1462 7.95261C12.8068 7.78463 9.80022 8.84333 8.8662 10.8047C7.51325 13.6458 10.7342 16.0832 16.2789 16.0902Z" fill="#FFB511"/>
<path fill-rule="evenodd" clip-rule="evenodd" d="M153.103 25.1034C155.922 25.1034 158.207 22.8185 158.207 20C158.207 17.1814 155.922 14.8965 153.103 14.8965C150.285 14.8965 148 17.1814 148 20C148 22.8185 150.285 25.1034 153.103 25.1034ZM153.103 28.2758C157.674 28.2758 161.379 24.5706 161.379 20C161.379 15.4294 157.674 11.7241 153.103 11.7241C148.533 11.7241 144.828 15.4294 144.828 20C144.828 24.5706 148.533 28.2758 153.103 28.2758Z" fill="white"/>
<path d="M126.366 27.9309H123.203V12.0688H124.055L133.766 21.324V12.0688H136.929V27.9309H136.057L126.366 18.6477V27.9309Z" fill="white"/>
<path d="M108.83 12.0688H111.992V27.9309H108.83V12.0688Z" fill="white"/>
<path d="M86.2032 27.9309H83.0403L84.2568 12.0688H85.0678L90.7448 18.2625L96.4421 12.0688H97.2734L98.4696 27.9309H95.3067L94.6173 18.7288L90.7651 22.9055L86.9128 18.7288L86.2032 27.9309Z" fill="white"/>
<path fill-rule="evenodd" clip-rule="evenodd" d="M72.2639 27.9309H75.8728L67.2012 12.0688H66.2574L57.605 27.9309H61.214L62.6535 25.2574H70.8041L72.2639 27.9309ZM66.7491 17.7962L64.3972 22.0945H69.101L66.7491 17.7962Z" fill="white"/>
<path d="M45.4942 11.7241C48.1816 11.7241 50.5728 13.0186 52.0752 15.0132L52.4138 15.4589L49.9024 17.3883C49.0118 15.896 47.3811 14.8966 45.517 14.8966C42.6984 14.8966 40.4135 17.1815 40.4135 20.0001C40.4135 22.8186 42.6984 25.1035 45.517 25.1035C47.3811 25.1035 49.0118 24.104 49.9025 22.6117L52.4138 24.5411L52.0752 24.9867C50.5728 27.0026 48.1816 28.2758 45.4942 28.2758C40.9446 28.2758 37.2414 24.5623 37.2414 20C37.2414 15.4376 40.9446 11.7241 45.4942 11.7241Z" fill="white"/>
</svg>
